<svg width="40" height="40" fill="none" xmlns="http://www.w3.org/2000/svg"><g clip-path="url(#clip0)"><path d="M26.604 16.631a7.26 7.26 0 00-2.653-2.653A7.132 7.132 0 0020.29 13a7.132 7.132 0 00-3.66.978 7.259 7.259 0 00-2.653 2.653 7.132 7.132 0 00-.978 3.66c0 1.323.326 2.543.978 3.66a7.262 7.262 0 002.653 2.653 7.132 7.132 0 003.66.978 7.133 7.133 0 003.66-.978 7.259 7.259 0 002.653-2.653 7.133 7.133 0 00.978-3.66 7.133 7.133 0 00-.978-3.66zm-6.313-2.568c1.57 0 2.94.52 4.11 1.557l-.118.166a4.124 4.124 0 01-.356.385 6.1 6.1 0 01-.622.54 8.18 8.18 0 01-.916.585 8.82 8.82 0 01-1.234.574 27.081 27.081 0 00-2.335-3.626c.5-.12.99-.18 1.471-.18zm-4.88 2.364a6.145 6.145 0 012.222-1.766 32.682 32.682 0 012.316 3.589c-1.924.506-3.841.76-5.753.76a6.156 6.156 0 011.216-2.583zm-.93 6.11a6.11 6.11 0 01-.418-2.246c0-.089.003-.155.01-.2 2.291 0 4.42-.294 6.39-.882.202.392.37.743.502 1.053a.767.767 0 01-.123.043 5.932 5.932 0 01-.124.033l-.351.124a7.14 7.14 0 00-.945.456c-.389.215-.802.471-1.239.769a8.477 8.477 0 00-1.352 1.182 7.958 7.958 0 00-1.173 1.58 6.235 6.235 0 01-1.177-1.913zm5.81 3.982c-1.48 0-2.804-.475-3.968-1.424l.142.104c.222-.487.547-.956.978-1.405.43-.45.845-.812 1.244-1.087.398-.275.832-.535 1.3-.779.469-.243.788-.398.96-.465l.407-.156.02-.01h.018c.62 1.627 1.064 3.203 1.33 4.728a6.226 6.226 0 01-2.43.494zm5.24-2.862a6.222 6.222 0 01-1.755 1.799 26.746 26.746 0 00-1.216-4.453c1.26-.196 2.554-.104 3.883.275a6.145 6.145 0 01-.911 2.379zm.893-3.451a7.553 7.553 0 00-.238-.043l-.346-.057a9.466 9.466 0 00-.456-.062 18.114 18.114 0 00-1.144-.09 13.65 13.65 0 00-1.353.005 8.277 8.277 0 00-.707.066 1.121 1.121 0 01-.07-.156 3.236 3.236 0 01-.062-.167c-.12-.265-.26-.566-.418-.901a9.743 9.743 0 001.248-.613c.396-.23.712-.436.95-.617a7.91 7.91 0 00.674-.574 5.69 5.69 0 00.413-.423c.063-.079.123-.157.18-.232l.01-.01a6.097 6.097 0 011.414 3.892l-.095-.018z" fill="#fff"/></g><circle cx="19.648" cy="19.648" r="19.359" stroke="#fff" stroke-opacity=".3" stroke-width=".578"/><defs><clipPath id="clip0"><path fill="#fff" transform="translate(13 13)" d="M0 0h14.582v14.582H0z"/></clipPath></defs></svg>