<svg width="40" height="40" fill="none" xmlns="http://www.w3.org/2000/svg"><g clip-path="url(#clip0)" fill="#fff"><path d="M18.706 19.519c.288-.145.505-.306.654-.48.265-.314.396-.73.396-1.246 0-.502-.13-.931-.392-1.29-.437-.587-1.177-.887-2.222-.902H13v8.454h3.862c.435 0 .838-.037 1.211-.113.373-.078.695-.219.968-.425a2.34 2.34 0 00.607-.665c.255-.397.382-.847.382-1.348 0-.485-.111-.899-.333-1.239-.225-.34-.554-.588-.991-.746zm-3.997-2.45h1.865c.41 0 .748.044 1.013.132.307.127.46.386.46.782 0 .354-.116.602-.348.742-.233.14-.535.21-.906.21h-2.084v-1.866zm2.95 5.37c-.207.1-.497.15-.869.15h-2.081v-2.255h2.11c.367.002.653.05.858.142.364.165.545.466.545.908 0 .52-.187.87-.563 1.055zm7.877-6.444h-3.673v1.053h3.673v-1.053zm1.276 4.153a3.016 3.016 0 00-.506-1.292 2.552 2.552 0 00-1.094-.925 3.62 3.62 0 00-1.491-.293c-.928 0-1.683.29-2.266.867-.582.578-.873 1.41-.873 2.493 0 1.155.322 1.99.968 2.502a3.479 3.479 0 002.232.77c1.023 0 1.817-.305 2.385-.912.363-.383.569-.76.614-1.13H25.09a1.365 1.365 0 01-.342.43c-.235.19-.542.286-.919.286-.357 0-.66-.079-.914-.236-.418-.251-.636-.692-.664-1.318h4.618c.007-.54-.01-.956-.056-1.242zm-4.52.162c.06-.406.208-.729.442-.967s.565-.357.989-.358c.39 0 .718.112.984.336.262.226.41.555.44.99h-2.855z"/></g><circle cx="19.648" cy="19.648" r="19.359" stroke="#fff" stroke-opacity=".3" stroke-width=".578"/><defs><clipPath id="clip0"><path fill="#fff" transform="translate(13 13)" d="M0 0h13.869v13.869H0z"/></clipPath></defs></svg>