<svg width="50" height="50" fill="none" xmlns="http://www.w3.org/2000/svg"><g clip-path="url(#clip0)" fill="#F3F3F3"><path d="M41.66 18.38C39.347 9.172 30.011 3.583 20.805 5.894A17.186 17.186 0 007.85 21.316 9.374 9.374 0 009.413 39.94h7.811v-3.124H9.413a6.25 6.25 0 010-12.5c.862 0 1.562-.699 1.562-1.561-.008-7.766 6.281-14.068 14.047-14.075a14.06 14.06 0 0113.81 11.34 1.562 1.562 0 001.327 1.25 7.812 7.812 0 01-1.062 15.546h-6.25v3.124h6.25c6.04-.018 10.921-4.93 10.903-10.97a10.936 10.936 0 00-8.34-10.59z"/><path d="M23.927 20.8l-6.25 6.248 2.203 2.203 3.594-3.578v14.983h3.124V25.674l3.578 3.577 2.203-2.203-6.25-6.249a1.562 1.562 0 00-2.202 0z"/></g><defs><clipPath id="clip0"><path fill="#fff" d="M0 0h50v50H0z"/></clipPath></defs></svg>