<svg width="40" height="40" fill="none" xmlns="http://www.w3.org/2000/svg"><g clip-path="url(#clip0)" fill="#FF5C66"><path d="M25.987 17.822c-.03-.69-.142-1.166-.302-1.577a3.172 3.172 0 00-.752-1.153 3.2 3.2 0 00-1.15-.75c-.414-.16-.887-.27-1.578-.301-.695-.033-.916-.041-2.681-.041-1.765 0-1.986.008-2.68.038-.69.03-1.165.142-1.577.302a3.171 3.171 0 00-1.152.752 3.2 3.2 0 00-.75 1.15c-.16.414-.271.887-.302 1.578-.033.695-.04.916-.04 2.681 0 1.765.007 1.986.038 2.68.03.69.142 1.165.302 1.577.165.436.421.827.752 1.152.325.33.718.587 1.15.75.414.16.886.271 1.577.302.693.03.914.038 2.68.038 1.764 0 1.985-.008 2.679-.038.69-.03 1.165-.142 1.576-.302a3.325 3.325 0 001.903-1.902c.16-.414.271-.887.302-1.578.03-.693.038-.914.038-2.679 0-1.765-.003-1.986-.033-2.679zm-1.17 5.308c-.029.635-.135.977-.224 1.206a2.157 2.157 0 01-1.235 1.234c-.228.09-.573.196-1.206.224-.686.03-.891.038-2.626.038-1.734 0-1.942-.008-2.626-.038-.634-.028-.977-.135-1.206-.224a2 2 0 01-.747-.485 2.02 2.02 0 01-.485-.746c-.088-.229-.195-.574-.223-1.207-.03-.685-.038-.891-.038-2.626 0-1.734.007-1.942.038-2.625.028-.635.134-.978.223-1.207.104-.282.27-.538.488-.746.21-.216.465-.381.747-.486.228-.088.574-.195 1.206-.223.686-.03.891-.038 2.626-.038 1.737 0 1.942.008 2.626.038.635.028.977.135 1.206.224.282.104.538.269.747.485.215.21.38.464.485.746.089.229.195.574.223 1.207.03.685.038.89.038 2.625 0 1.735-.007 1.938-.038 2.624z"/><path d="M19.524 17.162a3.34 3.34 0 10.002 6.68 3.34 3.34 0 00-.002-6.68zm0 5.505a2.167 2.167 0 110-4.333 2.167 2.167 0 010 4.333zm4.251-5.637a.78.78 0 11-1.56 0 .78.78 0 011.56 0z"/></g><circle cx="19.648" cy="19.648" r="19.359" stroke="#FF5C66" stroke-width=".578"/><defs><clipPath id="clip0"><path fill="#fff" transform="translate(13 14)" d="M0 0h13v13H0z"/></clipPath></defs></svg>