<svg width="63" height="41" fill="none" xmlns="http://www.w3.org/2000/svg"><path d="M8.924 2.882c-.163.47-.17.96-.2 1.434-.12 1.998.076 3.954.821 5.835.854 2.156 2.264 3.865 4.128 5.22 1.908 1.385 4.064 2.214 6.3 2.896 2.21.674 4.243 1.693 5.918 3.337 1.677 1.646 2.616 3.661 3.001 5.955.152.905.213 1.82.216 2.738 0 .11.001.221-.016.329-.06.36-.333.59-.655.561-.312-.028-.527-.267-.528-.637a20.665 20.665 0 00-.135-2.304c-.399-3.48-2.197-5.994-5.257-7.643-1.234-.665-2.556-1.097-3.888-1.516-2.836-.892-5.433-2.21-7.527-4.382C9.199 12.731 8.07 10.37 7.668 7.67A15.837 15.837 0 018.117.916c.014-.047.03-.093.043-.14.08-.321.277-.531.612-.535.308-.003.481.211.577.484.264.752.613 1.466.982 2.17.164.314.34.622.512.933.395.712 1.089.995 1.806 1.223 1.314.416 2.676.559 4.042.665 2.086.164 4.177.13 6.267.163 1.62.025 3.075.643 4.456 1.438a17.89 17.89 0 013.42 2.577c.115.11.249.2.355.317.164.182.286.146.452-.013C32.704 9.182 33.84 8.257 35.1 7.49c1.715-1.045 3.534-1.695 5.582-1.629 1.87.06 3.741-.004 5.606-.153 1.389-.111 2.772-.276 4.104-.731.8-.273 1.4-.735 1.792-1.514.462-.917.954-1.819 1.288-2.794.094-.275.287-.432.573-.43.31.003.486.207.58.482.303.896.472 1.823.579 2.759.24 2.1.113 4.175-.523 6.202-1.04 3.313-3.17 5.74-6.122 7.49-1.61.953-3.34 1.616-5.127 2.153-1.877.564-3.64 1.36-5.153 2.643-1.874 1.587-2.877 3.637-3.217 6.039-.111.787-.167 1.58-.149 2.376a1.79 1.79 0 01-.007.256c-.04.325-.277.549-.581.553a.568.568 0 01-.6-.567c-.077-3.178.57-6.125 2.764-8.572 1.467-1.636 3.316-2.678 5.343-3.443 1.372-.518 2.806-.854 4.15-1.456 2.587-1.156 4.833-2.728 6.361-5.175 1.003-1.605 1.543-3.365 1.715-5.25.107-1.163.06-2.318-.085-3.472-.015-.12-.003-.247-.124-.385-.183.328-.383.629-.526.955-.565 1.29-1.595 1.998-2.901 2.385-1.38.409-2.798.578-4.226.689-2.086.162-4.177.132-6.266.16-1.496.021-2.83.61-4.093 1.367-1.425.854-2.69 1.907-3.844 3.1-.454.468-.708.47-1.163.005-1.377-1.406-2.89-2.635-4.648-3.54-1.122-.579-2.302-.952-3.581-.943-1.688.011-3.375.02-5.06-.084-1.708-.106-3.413-.247-5.069-.733-1.27-.372-2.335-.994-2.903-2.266-.124-.278-.285-.54-.434-.807-.05-.093-.065-.214-.21-.278zm31.529 29.212c.001-1.786 0-3.57.002-5.356 0-.605.183-.783.792-.78 3.398.01 6.503 2.708 7.02 6.1.62 4.075-1.961 7.693-6.02 8.44-4.028.74-8.067-2.29-8.473-6.355-.023-.23-.055-.462-.057-.693-.004-.475.231-.774.591-.778.374-.005.593.268.606.757.073 2.703 1.965 5.085 4.575 5.758a6.137 6.137 0 007.635-5.147c.425-3.21-1.894-6.33-5.045-6.816-.387-.06-.426.072-.426.39.008 3.203.005 6.407.006 9.61 0 .135.006.27-.005.404-.034.403-.267.632-.625.623-.369-.008-.572-.228-.574-.655-.004-1.833-.002-3.668-.002-5.502zm-25.424 4.172c-.245.414-.453.84-.73 1.226-1.793 2.505-4.867 3.636-7.83 2.873-2.924-.754-5.085-3.257-5.429-6.291-.027-.242-.056-.487-.051-.73.008-.39.261-.666.586-.673.355-.007.586.253.608.678.124 2.357 1.187 4.145 3.25 5.313 3.52 1.992 8.23-.265 8.9-4.256a8.47 8.47 0 00.093-.984c.024-.474.235-.73.594-.745.361-.014.598.21.624.705.046.903.223 1.767.627 2.58a6.147 6.147 0 006.114 3.398 6.148 6.148 0 005.43-5.13c.048-.289.07-.582.088-.875.026-.429.246-.686.602-.684.338.002.609.295.597.702a7.522 7.522 0 01-.412 2.3c-1.107 3.134-4.118 5.163-7.43 4.902-2.682-.212-4.684-1.557-5.988-3.921-.069-.125-.1-.275-.243-.388zM54.322 40.6c-2.029-.072-4.023-1.03-5.51-2.997-.136-.18-.241-.368-.205-.605a.55.55 0 01.4-.476c.285-.092.509.012.675.235.352.473.731.918 1.202 1.277 1.859 1.415 3.907 1.782 6.076.913 2.25-.9 3.525-2.623 3.84-5.038a11.7 11.7 0 00.057-.62c.028-.371.26-.615.592-.618.313-.004.588.257.6.621.016.477-.051.951-.143 1.418-.67 3.398-3.698 5.883-7.584 5.89z" fill="#1C1D28"/></svg>