<svg width="19" height="19" fill="none" xmlns="http://www.w3.org/2000/svg"><g clip-path="url(#clip0)" fill="#fff"><path d="M18.331 10.999c.567-4.772-.272-7.784-1.785-9.146v-.001C14.103-.475 5.852-.82 2.93 1.956c-1.313 1.358-1.775 3.35-1.826 5.818-.05 2.467-.11 7.09 4.197 8.344h.004L5.3 18.033s-.03.776.466.932c.567.183.823-.177 2.586-2.283 2.949.256 5.213-.33 5.47-.415.595-.2 3.964-.646 4.508-5.268zm-9.687 4.336s-1.866 2.326-2.446 2.93c-.19.197-.399.179-.395-.21 0-.256.014-3.18.014-3.18C2.165 13.828 2.38 9.892 2.42 7.833c.04-2.06.416-3.747 1.528-4.883 2.564-2.404 9.797-1.867 11.64-.135 2.253 1.998 1.452 7.64 1.456 7.833-.463 3.859-3.193 4.103-3.694 4.27-.215.072-2.206.584-4.706.417z"/><path d="M9.676 3.402c-.305 0-.305.475 0 .479 2.365.018 4.312 1.666 4.333 4.69 0 .319.467.315.464-.004h-.001c-.026-3.258-2.152-5.147-4.796-5.165z"/><path d="M12.787 8.07c-.008.315.459.33.463.01.039-1.796-1.07-3.275-3.15-3.431-.305-.022-.337.456-.033.479 1.805.137 2.756 1.368 2.72 2.941zm-.499 2.043c-.392-.226-.79-.086-.954.137l-.345.446c-.175.226-.502.196-.502.196-2.386-.631-3.024-3.128-3.024-3.128s-.03-.338.19-.52l.43-.356c.215-.17.352-.582.132-.987-.586-1.058-.979-1.423-1.18-1.703-.21-.264-.527-.323-.856-.145h-.007c-.685.4-1.435 1.15-1.195 1.922.41.814 1.162 3.408 3.559 5.368 1.126.927 2.91 1.877 3.666 2.097l.007.01c.746.25 1.471-.53 1.858-1.235v-.006c.172-.341.115-.664-.136-.875-.445-.434-1.116-.913-1.643-1.221z"/><path d="M10.426 6.415c.76.045 1.13.442 1.169 1.258.014.32.477.297.463-.022-.05-1.065-.606-1.659-1.607-1.714-.305-.019-.333.46-.025.478z"/></g><defs><clipPath id="clip0"><path fill="#fff" d="M0 0h19v19H0z"/></clipPath></defs></svg>