<svg width="19" height="19" fill="none" xmlns="http://www.w3.org/2000/svg"><path fill-rule="evenodd" clip-rule="evenodd" d="M15.8 3.173A8.77 8.77 0 009.558.584C4.692.584.732 4.544.73 9.41a8.82 8.82 0 001.178 4.413L.656 18.397l4.68-1.227a8.817 8.817 0 004.217 1.074h.004c4.865 0 8.825-3.96 8.827-8.827A8.772 8.772 0 0015.8 3.173zm-6.243 13.58h-.003a7.328 7.328 0 01-3.734-1.022l-.268-.16-2.776.729.74-2.707-.174-.278a7.318 7.318 0 01-1.121-3.904c.001-4.045 3.292-7.336 7.339-7.336a7.28 7.28 0 015.186 2.152 7.293 7.293 0 012.147 5.19c-.001 4.045-3.292 7.336-7.336 7.336zm4.024-5.494c-.22-.11-1.305-.644-1.507-.718-.202-.073-.35-.11-.496.11-.147.221-.57.718-.698.865-.13.148-.258.166-.478.056-.22-.11-.931-.344-1.774-1.095-.656-.585-1.098-1.307-1.227-1.528-.128-.22 0-.329.097-.45.239-.296.478-.607.551-.754.074-.148.037-.276-.018-.387-.055-.11-.496-1.196-.68-1.637-.18-.43-.36-.372-.496-.379a8.82 8.82 0 00-.423-.008.81.81 0 00-.588.276c-.202.221-.772.755-.772 1.84 0 1.086.79 2.134.9 2.282.11.147 1.556 2.375 3.768 3.33.526.227.937.363 1.257.464a3.025 3.025 0 001.39.088c.423-.064 1.304-.534 1.488-1.049.184-.515.184-.957.129-1.049-.055-.092-.202-.147-.423-.257z" fill="#fff"/></svg>